<?xml version="1.0" encoding="UTF-8"?>
<svg width="99px" height="20px" viewBox="0 0 99 20" version="1.1" xmlns="http://www.w3.org/2000/svg" xmlns:xlink="http://www.w3.org/1999/xlink">
    <!-- Generator: Sketch 53.2 (72643) - https://sketchapp.com -->
    <title>导航栏logo_白</title>
    <desc>Created with Sketch.</desc>
    <defs>
        <rect id="path-1" x="0" y="0" width="99" height="20"></rect>
        <polygon id="path-3" points="0.0617125145 0.0294318182 11.592406 0.0294318182 11.592406 5.48090909 0.0617125145 5.48090909"></polygon>
    </defs>
    <g id="Symbols" stroke="none" stroke-width="1" fill="none" fill-rule="evenodd">
        <g id="一级导航栏/1920/深色背景白色/登录返回" transform="translate(-304.000000, -16.000000)">
            <g id="Navbar/透明背景白色_1920">
                <g id="Group" transform="translate(304.000000, 16.000000)">
                    <g id="logo/导航栏logo_白">
                        <mask id="mask-2" fill="white">
                            <use xlink:href="#path-1"></use>
                        </mask>
                        <g id="Mask"></g>
                        <g id="logo/Li-brandmark-horizontal-white" mask="url(#mask-2)" fill-rule="evenodd" stroke-width="1">
                            <g id="LI_Single_Line_CNA_NEG_RGB">
                                <path d="M19.1788402,19.6329545 C17.624094,19.6329545 16.1009428,19.6028409 14.5932481,19.2432955 C13.0673692,18.8794318 11.762087,18.2609091 10.525791,17.3492045 C7.98455379,15.4753409 6.54584528,12.9842045 5.08349735,10.3218182 C3.389074,7.23681818 1.694537,4.15181818 0,1.06670455 C4.5422911,1.06670455 9.0845822,1.06670455 13.626987,1.06670455 C13.7922356,1.36738636 17.0135606,7.22715909 17.1691489,7.51011364 C17.6858065,8.45090909 18.1962134,9.25659091 19.0584838,9.95477273 C20.1547617,10.8423864 21.9162392,11.0073864 23.5885006,11.0073864 C25.7860571,11.0073864 24.3351879,11.0072727 26.5327444,11.0072727 C28.1120393,13.8825 29.6913341,16.7577273 31.270629,19.6329545 C26.5404727,19.6329545 23.9089965,19.6329545 19.1788402,19.6329545" id="Fill-1" fill="#FFFFFE"></path>
                                <polyline id="Fill-3" fill="#FFFFFE" points="47.7455973 19.6329545 42.9949839 10.9843182 28.3376366 10.9843182 33.08825 19.6329545 47.7455973 19.6329545"></polyline>
                                <polyline id="Fill-4" fill="#FFFFFE" points="42.2370451 9.60556818 37.5063205 0.99375 22.8489733 0.99375 27.5796978 9.60556818 42.2370451 9.60556818"></polyline>
                                <path d="M89.88638,4.09170455 L96.0185355,4.09170455 L96.0185355,2.11386364 L89.88638,2.11386364 L89.88638,4.09170455 Z M89.88638,7.39227273 L96.0185355,7.39227273 L96.0185355,5.41431818 L89.88638,5.41431818 L89.88638,7.39227273 Z M89.88638,10.7585227 L96.0185355,10.7585227 L96.0185355,8.78704545 L89.88638,8.78704545 L89.88638,10.7585227 Z M88.0979672,12.24625 L97.8921865,12.24625 L97.8921865,0.626136364 L88.0979672,0.626136364 L88.0979672,12.24625 Z" id="Fill-5" fill="#FFFFFE"></path>
                                <path d="M60.2274364,15.3126136 C60.0624151,15.3445455 58.6142735,15.6256818 57.7974635,15.7843182 L57.7974635,10.4186364 L60.096965,10.4186364 L60.096965,8.71545455 L57.7974635,8.71545455 L57.7974635,3.35056818 L60.1822033,3.35056818 L60.1822033,1.56215909 L53.5389591,1.56215909 L53.5389591,3.35056818 L55.9236988,3.35056818 L55.9236988,8.71545455 L53.624311,8.71545455 L53.624311,10.4186364 L55.9236988,10.4186364 L55.9236988,16.1492045 C55.639003,16.2063636 55.2130389,16.2915909 54.6462611,16.4046591 C54.0207258,16.5190909 53.573509,16.6028409 53.2899496,16.6588636 L54.1872246,18.2932955 C55.5863825,17.9502273 60.3085832,17.0701136 60.3085832,17.0701136 C60.3085832,17.0701136 60.1942503,15.5825 60.2274364,15.3126136" id="Fill-6" fill="#FFFFFE"></path>
                                <g id="分组" transform="translate(87.283998, 13.068182)">
                                    <mask id="mask-4" fill="white">
                                        <use xlink:href="#path-3"></use>
                                    </mask>
                                    <g id="Clip-8"></g>
                                    <path d="M2.36485083,3.78579545 L3.81287873,2.59363636 C2.73364846,1.40147727 1.95525249,0.5975 1.33119463,0.0294318182 L0.0617125145,1.13 C0.969216066,1.98147727 1.68351285,2.82113636 2.36485083,3.78579545" id="Fill-7" fill="#FFFFFE" mask="url(#mask-4)"></path>
                                    <path d="M9.22891902,0.632840909 L7.56404494,1.33420455 C8.08706703,2.28704545 9.65295105,5.16613636 9.82695079,5.48090909 L11.5925197,4.73454545 C10.7509337,3.23897727 9.97572001,1.89340909 9.22891902,0.632840909" id="Fill-9" fill="#FFFFFE" mask="url(#mask-4)"></path>
                                </g>
                                <path d="M92.6775358,15.2311364 C92.6202557,15.9123864 92.5351311,16.5085227 92.4219347,17.0194318 C92.2516854,17.8710227 91.6262637,18.2676136 90.5482836,18.2117045 L87.1945551,18.2117045 C86.0021284,18.2676136 85.4338732,17.8431818 85.4911533,16.9343182 L85.4911533,13.9538636 L83.532264,13.9538636 L83.532264,17.3601136 C83.532264,19.1190909 84.5250058,20 86.5132171,20 L90.9741341,20 C92.6202557,20 93.6423195,19.3467045 94.0402118,18.0413636 C94.2105747,17.5304545 94.380483,16.8388636 94.5508459,15.93 C94.4903836,15.9189773 94.3262715,15.8755682 94.1221542,15.8195455 C93.4966189,15.5934091 92.9774609,15.3640909 92.6775358,15.2311364" id="Fill-10" fill="#FFFFFE"></path>
                                <g id="分组" transform="translate(77.964613, 0.000000)" fill="#FFFFFE">
                                    <path d="M0.436306341,18.3809091 C1.0603642,18.55125 1.62850575,18.7773864 2.13959447,19.0621591 C2.93401524,17.6438636 3.58739507,16.1109091 4.09837014,14.4636364 L2.30984373,13.8676136 C1.68442206,15.7981818 1.0603642,17.3031818 0.436306341,18.3809091" id="Fill-11"></path>
                                    <path d="M7.45948599,9.56704545 L8.6519127,8.28965909 C8.14082397,7.83590909 6.57391709,6.53840909 6.18193465,6.24579545 L5.50059667,6.945 L5.50059667,4.79818182 L8.31118688,4.79818182 L8.31118688,3.09511364 L5.50059667,3.09511364 L5.50059667,0.0294318182 L3.71207026,0.0294318182 L3.71207026,3.09511364 L0.475629601,3.09511364 L0.475629601,4.79818182 L3.45669637,4.79818182 C2.54782901,6.72852273 1.41290972,8.40363636 0.0504610616,9.82181818 L0.970920832,11.4985227 C2.0717448,10.2340909 2.98697662,8.85386364 3.71207026,7.35295455 L3.71207026,12.8029545 L5.50059667,12.8029545 L5.50059667,7.69352273 C6.18193465,8.26170455 6.83395067,8.88579545 7.45948599,9.56704545" id="Fill-13"></path>
                                </g>
                                <path d="M63.7070903,9.76352273 L66.9150045,9.76352273 L66.9150045,6.82852273 L63.7070903,6.82852273 L63.7070903,9.76352273 Z M63.7070903,5.42477273 L66.9150045,5.42477273 L66.9150045,2.55772727 L63.7070903,2.55772727 L63.7070903,5.42477273 Z M68.574537,9.76352273 L71.7824512,9.76352273 L71.7824512,6.82852273 L68.574537,6.82852273 L68.574537,9.76352273 Z M68.574537,5.42477273 L71.7824512,5.42477273 L71.7824512,2.55772727 L68.574537,2.55772727 L68.574537,5.42477273 Z M73.7512282,17.9123864 L68.6389771,17.9123864 L68.6389771,15.3576136 L73.8233966,15.3576136 L72.9353274,13.7396591 L68.6389771,13.7396591 L68.6389771,11.3552273 L73.5787059,11.3552273 L73.5787059,0.966136364 L61.9107219,0.966136364 L61.9107219,11.3552273 L66.7653261,11.3552273 L66.7653261,13.7396591 L61.6552344,13.7396591 L61.6552344,15.3576136 L66.7653261,15.3576136 L66.7653261,17.9123864 L60.4623531,17.9123864 L61.3970192,19.6154545 L74.6858944,19.6154545 L73.7512282,17.9123864 L73.7512282,17.9123864 Z" id="Fill-14" fill="#FFFFFE"></path>
                            </g>
                        </g>
                    </g>
                </g>
            </g>
        </g>
    </g>
</svg>